# MagicaVoxel @ Ephtracy

# material
mtllib chest.mtl
usemtl palette

# normals
vn -1 0 0
vn 1 0 0
vn 0 0 1
vn 0 0 -1
vn 0 -1 0
vn 0 1 0

# texcoords
vt 0.279297 0.5
vt 0.373047 0.5
vt 0.990234 0.5

# verts
v -9 10 12
v -9 10 -13
v -9 11 12
v -9 11 -13
v -8 2 11
v -8 2 -12
v -8 10 11
v -8 10 -12
v -8 11 11
v -8 11 -12
v -8 13 11
v -8 13 -12
v -7 0 10
v -7 0 -11
v -7 2 10
v -7 2 -11
v -7 13 10
v -7 13 -11
v -7 15 10
v -7 15 -11
v -5 15 8
v -5 15 -9
v -5 16 8
v -5 16 -9
v -3 16 6
v -3 16 -7
v -3 17 6
v -3 17 -7
v 3 16 6
v 3 16 -7
v 3 17 6
v 3 17 -7
v 5 15 8
v 5 15 -9
v 5 16 8
v 5 16 -9
v 7 0 10
v 7 0 -11
v 7 2 10
v 7 2 -11
v 7 13 10
v 7 13 -11
v 7 15 10
v 7 15 -11
v 8 2 11
v 8 2 -12
v 8 8 1
v 8 8 -2
v 8 10 11
v 8 10 1
v 8 10 -2
v 8 10 -12
v 8 11 11
v 8 11 1
v 8 11 -2
v 8 11 -12
v 8 12 1
v 8 12 -2
v 8 13 11
v 8 13 -12
v 9 8 1
v 9 8 -2
v 9 9 -0
v 9 9 -1
v 9 10 12
v 9 10 1
v 9 10 -2
v 9 10 -13
v 9 11 12
v 9 11 1
v 9 11 -0
v 9 11 -1
v 9 11 -2
v 9 11 -13
v 9 12 1
v 9 12 -2
v -9 10 12
v -9 11 12
v 9 10 12
v 9 11 12
v -8 2 11
v -8 10 11
v -8 11 11
v -8 13 11
v 8 2 11
v 8 10 11
v 8 11 11
v 8 13 11
v -7 0 10
v -7 2 10
v -7 13 10
v -7 15 10
v 7 0 10
v 7 2 10
v 7 13 10
v 7 15 10
v -5 15 8
v -5 16 8
v 5 15 8
v 5 16 8
v -3 16 6
v -3 17 6
v 3 16 6
v 3 17 6
v 8 8 1
v 8 10 1
v 8 11 1
v 8 12 1
v 9 8 1
v 9 10 1
v 9 11 1
v 9 12 1
v 8 8 -2
v 8 10 -2
v 8 11 -2
v 8 12 -2
v 9 8 -2
v 9 10 -2
v 9 11 -2
v 9 12 -2
v -3 16 -7
v -3 17 -7
v 3 16 -7
v 3 17 -7
v -5 15 -9
v -5 16 -9
v 5 15 -9
v 5 16 -9
v -7 0 -11
v -7 2 -11
v -7 13 -11
v -7 15 -11
v 7 0 -11
v 7 2 -11
v 7 13 -11
v 7 15 -11
v -8 2 -12
v -8 10 -12
v -8 11 -12
v -8 13 -12
v 8 2 -12
v 8 10 -12
v 8 11 -12
v 8 13 -12
v -9 10 -13
v -9 11 -13
v 9 10 -13
v 9 11 -13
v -7 0 10
v 7 0 10
v -7 0 -11
v 7 0 -11
v -8 2 11
v 8 2 11
v -7 2 10
v 7 2 10
v -7 2 -11
v 7 2 -11
v -8 2 -12
v 8 2 -12
v 8 8 1
v 9 8 1
v 8 8 -2
v 9 8 -2
v -9 10 12
v 9 10 12
v -8 10 11
v 8 10 11
v 8 10 1
v 9 10 1
v 8 10 -2
v 9 10 -2
v -8 10 -12
v 8 10 -12
v -9 10 -13
v 9 10 -13
v -9 11 12
v 9 11 12
v -8 11 11
v 8 11 11
v 8 11 1
v 9 11 1
v 8 11 -2
v 9 11 -2
v -8 11 -12
v 8 11 -12
v -9 11 -13
v 9 11 -13
v 8 12 1
v 9 12 1
v 8 12 -2
v 9 12 -2
v -8 13 11
v 8 13 11
v -7 13 10
v 7 13 10
v -7 13 -11
v 7 13 -11
v -8 13 -12
v 8 13 -12
v -7 15 10
v 7 15 10
v -5 15 8
v 5 15 8
v -5 15 -9
v 5 15 -9
v -7 15 -11
v 7 15 -11
v -5 16 8
v 5 16 8
v -3 16 6
v 3 16 6
v -3 16 -7
v 3 16 -7
v -5 16 -9
v 5 16 -9
v -3 17 6
v 3 17 6
v -3 17 -7
v 3 17 -7

# faces
f 3/3/1 2/3/1 1/3/1
f 4/3/1 2/3/1 3/3/1
f 7/1/1 6/1/1 5/1/1
f 8/1/1 6/1/1 7/1/1
f 11/1/1 10/1/1 9/1/1
f 12/1/1 10/1/1 11/1/1
f 15/1/1 14/1/1 13/1/1
f 16/1/1 14/1/1 15/1/1
f 19/1/1 18/1/1 17/1/1
f 20/1/1 18/1/1 19/1/1
f 23/1/1 22/1/1 21/1/1
f 24/1/1 22/1/1 23/1/1
f 27/1/1 26/1/1 25/1/1
f 28/1/1 26/1/1 27/1/1
f 29/1/2 30/1/2 31/1/2
f 31/1/2 30/1/2 32/1/2
f 33/1/2 34/1/2 35/1/2
f 35/1/2 34/1/2 36/1/2
f 37/1/2 38/1/2 39/1/2
f 39/1/2 38/1/2 40/1/2
f 41/1/2 42/1/2 43/1/2
f 43/1/2 42/1/2 44/1/2
f 45/1/2 46/1/2 47/1/2
f 47/1/2 46/1/2 48/1/2
f 45/1/2 47/1/2 49/1/2
f 49/1/2 47/1/2 50/1/2
f 48/1/2 46/1/2 51/1/2
f 51/1/2 46/1/2 52/1/2
f 53/1/2 54/1/2 57/1/2
f 55/1/2 56/1/2 58/1/2
f 53/1/2 57/1/2 59/1/2
f 57/1/2 58/1/2 59/1/2
f 58/1/2 56/1/2 60/1/2
f 59/1/2 58/1/2 60/1/2
f 61/3/2 62/3/2 63/3/2
f 63/3/2 62/3/2 64/3/2
f 61/3/2 63/3/2 66/3/2
f 64/3/2 62/3/2 67/3/2
f 65/3/2 66/3/2 69/3/2
f 66/3/2 63/3/2 70/3/2
f 69/3/2 66/3/2 70/3/2
f 63/2/2 64/2/2 71/2/2
f 70/3/2 63/3/2 71/3/2
f 67/3/2 68/3/2 72/3/2
f 71/2/2 64/2/2 72/2/2
f 64/3/2 67/3/2 72/3/2
f 72/3/2 68/3/2 73/3/2
f 73/3/2 68/3/2 74/3/2
f 70/3/2 71/3/2 75/3/2
f 72/3/2 73/3/2 75/3/2
f 71/3/2 72/3/2 75/3/2
f 75/3/2 73/3/2 76/3/2
f 79/3/3 78/3/3 77/3/3
f 80/3/3 78/3/3 79/3/3
f 85/1/3 82/1/3 81/1/3
f 86/1/3 82/1/3 85/1/3
f 87/1/3 84/1/3 83/1/3
f 88/1/3 84/1/3 87/1/3
f 93/1/3 90/1/3 89/1/3
f 94/1/3 90/1/3 93/1/3
f 95/1/3 92/1/3 91/1/3
f 96/1/3 92/1/3 95/1/3
f 99/1/3 98/1/3 97/1/3
f 100/1/3 98/1/3 99/1/3
f 103/1/3 102/1/3 101/1/3
f 104/1/3 102/1/3 103/1/3
f 109/3/3 106/3/3 105/3/3
f 110/3/3 106/3/3 109/3/3
f 111/3/3 108/3/3 107/3/3
f 112/3/3 108/3/3 111/3/3
f 113/3/4 114/3/4 117/3/4
f 117/3/4 114/3/4 118/3/4
f 115/3/4 116/3/4 119/3/4
f 119/3/4 116/3/4 120/3/4
f 121/1/4 122/1/4 123/1/4
f 123/1/4 122/1/4 124/1/4
f 125/1/4 126/1/4 127/1/4
f 127/1/4 126/1/4 128/1/4
f 129/1/4 130/1/4 133/1/4
f 133/1/4 130/1/4 134/1/4
f 131/1/4 132/1/4 135/1/4
f 135/1/4 132/1/4 136/1/4
f 137/1/4 138/1/4 141/1/4
f 141/1/4 138/1/4 142/1/4
f 139/1/4 140/1/4 143/1/4
f 143/1/4 140/1/4 144/1/4
f 145/3/4 146/3/4 147/3/4
f 147/3/4 146/3/4 148/3/4
f 151/1/5 150/1/5 149/1/5
f 152/1/5 150/1/5 151/1/5
f 155/1/5 154/1/5 153/1/5
f 156/1/5 154/1/5 155/1/5
f 157/1/5 155/1/5 153/1/5
f 158/1/5 154/1/5 156/1/5
f 159/1/5 157/1/5 153/1/5
f 159/1/5 158/1/5 157/1/5
f 160/1/5 154/1/5 158/1/5
f 160/1/5 158/1/5 159/1/5
f 163/3/5 162/3/5 161/3/5
f 164/3/5 162/3/5 163/3/5
f 167/3/5 166/3/5 165/3/5
f 168/3/5 166/3/5 167/3/5
f 169/3/5 166/3/5 168/3/5
f 170/3/5 166/3/5 169/3/5
f 173/3/5 167/3/5 165/3/5
f 174/3/5 172/3/5 171/3/5
f 175/3/5 173/3/5 165/3/5
f 175/3/5 174/3/5 173/3/5
f 176/3/5 172/3/5 174/3/5
f 176/3/5 174/3/5 175/3/5
f 177/3/6 178/3/6 179/3/6
f 179/3/6 178/3/6 180/3/6
f 180/3/6 178/3/6 181/3/6
f 181/3/6 178/3/6 182/3/6
f 177/3/6 179/3/6 185/3/6
f 183/3/6 184/3/6 186/3/6
f 177/3/6 185/3/6 187/3/6
f 185/3/6 186/3/6 187/3/6
f 186/3/6 184/3/6 188/3/6
f 187/3/6 186/3/6 188/3/6
f 189/3/6 190/3/6 191/3/6
f 191/3/6 190/3/6 192/3/6
f 193/1/6 194/1/6 195/1/6
f 195/1/6 194/1/6 196/1/6
f 193/1/6 195/1/6 197/1/6
f 196/1/6 194/1/6 198/1/6
f 193/1/6 197/1/6 199/1/6
f 197/1/6 198/1/6 199/1/6
f 198/1/6 194/1/6 200/1/6
f 199/1/6 198/1/6 200/1/6
f 201/1/6 202/1/6 203/1/6
f 203/1/6 202/1/6 204/1/6
f 201/1/6 203/1/6 205/1/6
f 204/1/6 202/1/6 206/1/6
f 201/1/6 205/1/6 207/1/6
f 205/1/6 206/1/6 207/1/6
f 206/1/6 202/1/6 208/1/6
f 207/1/6 206/1/6 208/1/6
f 209/1/6 210/1/6 211/1/6
f 211/1/6 210/1/6 212/1/6
f 209/1/6 211/1/6 213/1/6
f 212/1/6 210/1/6 214/1/6
f 209/1/6 213/1/6 215/1/6
f 213/1/6 214/1/6 215/1/6
f 214/1/6 210/1/6 216/1/6
f 215/1/6 214/1/6 216/1/6
f 217/1/6 218/1/6 219/1/6
f 219/1/6 218/1/6 220/1/6
